# 3ds Max Wavefront OBJ Exporter v0.97b - (c)2007 guruware
# File Created: 18.09.2018 06:14:23

mtllib sink_lp.mtl

#
# object sink
#

v  22.2828 10.8107 26.3819
v  22.2828 10.8107 -26.3819
v  -11.5010 10.8107 -26.3819
v  -11.5010 10.8107 26.3819
v  31.0858 21.4238 -30.6922
v  -15.9960 21.4238 -30.6922
v  -18.3088 25.0770 -34.1897
v  33.3986 25.0770 -34.1897
v  23.8135 25.0770 -27.9126
v  34.3986 25.0770 -33.1897
v  23.8135 25.0770 27.9126
v  -13.0317 25.0770 -27.9126
v  -13.0317 25.0770 27.9126
v  29.1672 21.2608 -28.8606
v  29.1672 21.2608 28.8606
v  26.7798 5.9504 27.3317
v  26.7798 5.9504 -27.0334
v  -14.0774 21.2608 28.8606
v  -14.0774 21.2608 -28.8606
v  -11.6900 5.9504 -27.0334
v  -11.6900 5.9504 27.3317
v  34.3986 25.0770 33.1897
v  33.3986 25.0770 34.1897
v  31.0858 21.4238 30.6922
v  -19.3088 25.0770 -33.1897
v  -19.3088 25.0770 33.1897
v  -15.9960 21.4238 30.6922
v  -18.3088 25.0770 34.1897
v  25.2684 27.5173 1.9044
v  28.6877 27.5173 3.8785
v  32.1070 27.5173 1.9044
v  32.1070 27.5173 -2.0439
v  28.6877 27.5173 -4.0180
v  25.2684 27.5173 -2.0439
v  32.1069 25.0766 -2.0439
v  28.6877 25.0766 -4.0180
v  32.1069 25.0766 1.9044
v  28.6877 25.0766 3.8785
v  25.2684 25.0766 1.9044
v  25.2684 25.0766 -2.0439
v  30.5279 24.9908 15.7757
v  30.5279 34.4408 15.7757
v  30.5279 34.4408 19.6181
v  30.5279 24.9908 19.6181
v  27.5910 24.9908 17.6969
v  27.5910 34.4408 17.6969
v  28.5548 35.3917 11.3021
v  29.6613 35.2219 16.2102
v  29.6613 34.2358 16.2102
v  28.5548 34.0660 11.3021
v  28.5912 34.2358 16.4969
v  28.5912 35.2219 16.4969
v  27.0954 35.3917 11.6931
v  27.0954 34.0660 11.6931
v  31.3442 36.8445 17.5324
v  32.0515 35.0767 17.3429
v  30.8867 35.0767 15.8249
v  30.6573 36.5201 16.2222
v  31.4045 36.5201 19.0106
v  31.8018 35.0767 19.2400
v  27.9292 36.8445 18.4475
v  27.8689 36.5201 16.9694
v  27.4716 35.0767 16.7400
v  27.2219 35.0767 18.6370
v  28.6161 36.5201 19.7577
v  28.3867 35.0767 20.1550
v  30.0942 36.8445 19.6975
v  30.2838 35.0767 20.4048
v  29.6367 37.5767 17.9900
v  29.1792 36.8445 16.2824
v  28.9897 35.0767 15.5752
v  32.0515 33.6193 17.3429
v  30.8867 33.6193 15.8249
v  31.8018 33.6193 19.2400
v  27.4716 33.6193 16.7400
v  27.2219 33.6193 18.6370
v  28.3867 33.6193 20.1550
v  30.2838 33.6193 20.4048
v  28.9897 33.6193 15.5752
v  30.7187 35.3917 24.6779
v  29.6121 35.2219 19.7698
v  29.6121 34.2358 19.7698
v  30.7187 34.0660 24.6779
v  30.6822 34.2358 19.4831
v  30.6822 35.2219 19.4831
v  32.1780 35.3917 24.2868
v  32.1780 34.0660 24.2868
v  27.7389 24.9908 -17.1712
v  30.6759 24.9908 -15.2500
v  30.6759 34.4408 -15.2500
v  27.7389 34.4408 -17.1712
v  30.6759 24.9908 -19.0924
v  30.6759 34.4408 -19.0924
v  30.6174 35.3917 -10.4481
v  29.5109 35.2219 -15.3562
v  29.5109 34.2358 -15.3562
v  30.6174 34.0660 -10.4481
v  30.5810 34.2358 -15.6429
v  30.5810 35.2219 -15.6429
v  32.0768 35.3917 -10.8392
v  32.0768 34.0660 -10.8392
v  27.8280 36.8445 -16.6785
v  27.1207 35.0767 -16.4890
v  28.2855 35.0767 -14.9710
v  28.5149 36.5201 -15.3683
v  27.7677 36.5201 -18.1566
v  27.3704 35.0767 -18.3860
v  31.2430 36.8445 -17.5936
v  31.3033 36.5201 -16.1154
v  31.7006 35.0767 -15.8860
v  31.9503 35.0767 -17.7831
v  30.5561 36.5201 -18.9038
v  30.7855 35.0767 -19.3011
v  29.0780 36.8445 -18.8436
v  28.8885 35.0767 -19.5508
v  29.5355 37.5767 -17.1360
v  29.9930 36.8445 -15.4285
v  30.1825 35.0767 -14.7212
v  27.1207 33.6193 -16.4890
v  28.2855 33.6193 -14.9710
v  27.3704 33.6193 -18.3860
v  31.7006 33.6193 -15.8860
v  31.9503 33.6193 -17.7831
v  30.7855 33.6193 -19.3011
v  28.8885 33.6193 -19.5508
v  30.1825 33.6193 -14.7212
v  28.4536 35.3917 -23.8239
v  29.5601 35.2219 -18.9158
v  29.5601 34.2358 -18.9158
v  28.4536 34.0660 -23.8239
v  28.4900 34.2358 -18.6291
v  28.4900 35.2219 -18.6291
v  26.9942 35.3917 -23.4329
v  26.9942 34.0660 -23.4329
v  30.1371 26.9639 -0.0110
v  29.6910 42.4596 -0.0110
v  28.9707 42.1940 1.3254
v  29.3783 26.9770 1.3254
v  27.5120 41.6560 1.3364
v  27.8418 27.0036 1.3364
v  26.7736 41.3836 0.0110
v  27.0640 27.0171 0.0110
v  27.4939 41.6493 -1.3254
v  27.8228 27.0040 -1.3254
v  28.9526 42.1873 -1.3364
v  29.3593 26.9774 -1.3364
v  28.3591 43.2988 1.3254
v  28.9510 43.7963 -0.0110
v  27.1604 42.2912 1.3364
v  26.5535 41.7811 0.0110
v  27.1455 42.2787 -1.3254
v  28.3442 43.2863 -1.3364
v  27.0419 44.3604 1.3254
v  27.4189 45.0313 -0.0110
v  26.2786 43.0019 1.3364
v  25.8922 42.3142 0.0110
v  26.2691 42.9851 -1.3254
v  27.0325 44.3436 -1.3364
v  18.1975 46.1592 -0.0110
v  18.3356 45.4090 1.3254
v  18.6151 43.8897 1.3364
v  18.7565 43.1206 0.0110
v  18.6185 43.8708 -1.3254
v  18.3390 45.3902 -1.3364
v  16.7016 44.9210 1.3254
v  16.3020 45.5949 -0.0110
v  17.5108 43.5564 1.3364
v  17.9205 42.8657 0.0110
v  17.5209 43.5395 -1.3254
v  16.7116 44.9041 -1.3364
v  15.2520 43.2314 1.3254
v  14.5013 43.4818 -0.0110
v  16.7724 42.7242 1.3364
v  17.5419 42.4674 0.0110
v  16.7912 42.7179 -1.3254
v  15.2709 43.2251 -1.3364
v  14.3195 39.3745 -0.0110
v  15.0771 39.3312 1.3254
v  16.6114 39.2435 1.3364
v  17.3880 39.1991 0.0110
v  16.6304 39.2424 -1.3254
v  15.0962 39.3301 -1.3364
v  14.6690 39.6233 2.0219
v  13.5132 39.6894 -0.0168
v  13.5132 38.1286 -0.0168
v  14.6690 38.0626 2.0219
v  17.0096 39.4896 2.0387
v  17.0096 37.9288 2.0387
v  18.1944 39.4219 0.0168
v  18.1944 37.8611 0.0168
v  17.0386 39.4879 -2.0219
v  17.0386 37.9272 -2.0219
v  14.6980 39.6217 -2.0387
v  14.6980 38.0609 -2.0387
# 194 vertices

vn 0.0000 1.0000 -0.0000
vn -0.0000 -0.6915 -0.7223
vn -0.4371 -0.7964 -0.4179
vn -0.0000 1.0000 -0.0000
vn -0.6991 0.1500 0.6991
vn -0.6991 0.1500 -0.6991
vn 0.6991 0.1500 0.6991
vn 0.6991 0.1500 -0.6991
vn 0.7011 -0.1913 -0.6870
vn 0.7066 -0.1786 0.6847
vn 0.6819 -0.1772 0.7096
vn 0.6850 -0.1907 -0.7032
vn -0.7066 -0.1786 0.6847
vn -0.7011 -0.1913 -0.6870
vn -0.6850 -0.1907 -0.7032
vn -0.6819 -0.1772 0.7096
vn -0.0000 1.0000 0.0000
vn 0.0000 1.0000 0.0000
vn 0.4699 -0.7473 0.4699
vn -0.4699 -0.7473 -0.4699
vn 0.7408 -0.6718 -0.0000
vn 0.7408 -0.6718 0.0000
vn 0.4371 -0.7964 0.4179
vn -0.7408 -0.6718 0.0000
vn 0.0000 -0.6915 0.7223
vn 0.4699 -0.7473 -0.4699
vn -0.4699 -0.7473 0.4699
vn -0.0000 -0.0000 -1.0000
vn 0.8660 -0.0000 -0.5000
vn 0.8660 -0.0000 0.5000
vn 0.0000 -0.0000 1.0000
vn -0.8660 0.0000 0.5000
vn -0.8660 0.0000 -0.5000
vn 0.4757 0.0000 -0.8796
vn 0.4757 -0.0000 0.8796
vn -1.0000 0.0000 -0.0000
vn -1.0000 -0.0000 0.0000
vn 0.4235 0.5857 -0.6911
vn 0.6942 0.7076 -0.1320
vn 0.9755 0.0000 -0.2199
vn 0.5075 0.0000 -0.8616
vn -0.9548 -0.0000 0.2973
vn -0.6672 0.7076 0.2328
vn -0.7123 0.5857 -0.3868
vn -0.8704 -0.0000 -0.4924
vn 0.6769 0.7069 -0.2051
vn 0.9484 0.1773 -0.2628
vn 0.5017 0.1593 -0.8502
vn 0.4260 0.5892 -0.6866
vn 0.7015 0.5652 0.4341
vn 0.8502 0.1593 0.5017
vn -0.6830 0.7071 0.1830
vn -0.7216 0.5529 -0.4166
vn -0.8533 0.1708 -0.4926
vn -0.9528 0.1773 0.2466
vn -0.3997 0.6009 0.6923
vn -0.4945 0.1479 0.8565
vn 0.1830 0.7071 0.6830
vn 0.2628 0.1773 0.9484
vn -0.1830 0.7071 -0.6830
vn -0.2628 0.1773 -0.9484
vn 0.9659 0.0000 -0.2588
vn 0.5000 0.0000 -0.8660
vn 0.8660 0.0000 0.5000
vn -0.9659 -0.0000 0.2588
vn -0.5000 -0.0000 0.8660
vn 0.2588 0.0000 0.9659
vn -0.2588 -0.0000 -0.9659
vn -0.4235 0.5857 0.6911
vn -0.6942 0.7076 0.1320
vn -0.9755 -0.0000 0.2199
vn -0.5075 -0.0000 0.8616
vn 0.9548 -0.0000 -0.2973
vn 0.6672 0.7076 -0.2328
vn 0.7123 0.5857 0.3868
vn 0.8704 -0.0000 0.4924
vn -1.0000 0.0000 0.0000
vn 0.4757 0.0000 0.8796
vn 0.9548 0.0000 -0.2973
vn 0.8704 0.0000 0.4924
vn -0.6769 0.7069 0.2051
vn -0.9484 0.1773 0.2628
vn -0.5017 0.1593 0.8502
vn -0.4260 0.5892 0.6866
vn -0.7015 0.5652 -0.4341
vn -0.8502 0.1593 -0.5017
vn 0.6830 0.7071 -0.1830
vn 0.7216 0.5529 0.4166
vn 0.8533 0.1708 0.4926
vn 0.9528 0.1773 -0.2466
vn 0.3997 0.6009 -0.6923
vn 0.4945 0.1479 -0.8565
vn -0.8660 -0.0000 -0.5000
vn 0.9996 0.0278 -0.0076
vn 0.9630 0.2692 -0.0069
vn 0.5382 0.1432 0.8306
vn 0.5167 0.0138 0.8561
vn -0.4143 -0.1149 0.9028
vn -0.4848 -0.0099 0.8746
vn -0.9675 -0.2528 0.0082
vn -0.9997 -0.0213 0.0079
vn -0.4270 -0.1177 -0.8965
vn -0.4968 -0.0112 -0.8678
vn 0.5276 0.1395 -0.8380
vn 0.5049 0.0145 -0.8631
vn 0.4176 0.3510 0.8381
vn 0.7655 0.6434 -0.0068
vn -0.3377 -0.2838 0.8974
vn -0.7655 -0.6434 0.0077
vn -0.3477 -0.2922 -0.8909
vn 0.4087 0.3435 -0.8455
vn 0.2138 0.5232 0.8250
vn 0.3972 0.9177 -0.0064
vn -0.1650 -0.3846 0.9082
vn -0.3748 -0.9271 0.0074
vn -0.1705 -0.3972 -0.9018
vn 0.2097 0.5125 -0.8327
vn -0.0900 0.9959 -0.0064
vn -0.0427 0.5501 0.8340
vn 0.0419 -0.4391 0.8975
vn 0.0842 -0.9964 0.0069
vn 0.0432 -0.4528 -0.8906
vn -0.0419 0.5383 -0.8417
vn -0.3078 0.4700 0.8273
vn -0.5425 0.8400 -0.0069
vn 0.2234 -0.3514 0.9092
vn 0.5333 -0.8459 0.0076
vn 0.2309 -0.3627 -0.9028
vn -0.3027 0.4602 -0.8346
vn -0.5273 0.2121 0.8228
vn -0.9321 0.3622 -0.0071
vn 0.3667 -0.1478 0.9185
vn 0.9152 -0.4028 0.0084
vn 0.3789 -0.1529 -0.9127
vn -0.5171 0.2089 -0.8300
vn -0.9990 0.0444 -0.0073
vn -0.5027 0.0223 0.8642
vn 0.4959 -0.0229 0.8681
vn 0.9989 -0.0467 0.0073
vn 0.5080 -0.0238 -0.8610
vn -0.4904 0.0220 -0.8712
vn -0.8699 -0.0000 0.4932
vn -0.0072 -0.0000 1.0000
vn -0.0072 0.0000 1.0000
vn 0.8628 -0.0000 0.5056
vn 0.8699 -0.0000 -0.4932
vn 0.0072 -0.0000 -1.0000
vn 0.0072 0.0000 -1.0000
vn -0.8628 -0.0000 -0.5056
vn -0.8628 0.0000 -0.5056
vn 0.0570 0.9984 0.0000
vn 0.0570 0.9984 -0.0000
# 152 vertex normals

vt 0.7190 0.8597 0.0000
vt 0.4269 0.8714 0.0000
vt 0.4194 0.6843 0.0000
vt 0.7115 0.6727 0.0000
vt 0.0178 0.5099 0.0000
vt 0.0328 0.7852 0.0000
vt 0.0185 0.7939 0.0000
vt 0.0005 0.5061 0.0000
vt 0.2278 0.4589 0.0000
vt 0.2612 0.4047 0.0000
vt 0.2337 0.4642 0.0000
vt 0.0005 0.8875 0.0000
vt 0.0318 0.8140 0.0000
vt 0.3113 0.8991 0.0000
vt 0.2962 0.9776 0.0000
vt 0.8068 0.9560 0.0000
vt 0.7885 0.8782 0.0000
vt 0.9653 0.8166 0.0000
vt 0.9995 0.8888 0.0000
vt 0.4999 0.9947 0.0000
vt 0.4982 0.9148 0.0000
vt 0.0005 0.3678 0.0000
vt 0.1752 0.0880 0.0000
vt 0.2306 0.1524 0.0000
vt 0.0793 0.4044 0.0000
vt 0.4166 0.0005 0.0000
vt 0.7321 0.1158 0.0000
vt 0.6823 0.1859 0.0000
vt 0.4141 0.0851 0.0000
vt 0.8825 0.3117 0.0000
vt 0.8061 0.3532 0.0000
vt 0.2197 0.1723 0.0000
vt 0.2554 0.2007 0.0000
vt 0.3963 0.4827 0.0000
vt 0.4052 0.4910 0.0000
vt 0.3901 0.4986 0.0000
vt 0.0270 0.8014 0.0000
vt 0.5703 0.3959 0.0000
vt 0.6011 0.4537 0.0000
vt 0.2253 0.1667 0.0000
vt 0.0264 0.4960 0.0000
vt 0.0305 0.5135 0.0000
vt 0.3983 0.7896 0.0000
vt 0.3912 0.7739 0.0000
vt 0.4059 0.7812 0.0000
vt 0.0035 0.4988 0.0000
vt 0.1418 0.3088 -1.0284
vt 0.1515 0.2892 -1.0284
vt 0.1734 0.2879 -0.0000
vt 0.1854 0.3061 1.0284
vt 0.1757 0.3257 1.0284
vt 0.1538 0.3270 -0.0000
vt 0.8504 0.1125 0.0000
vt 0.8727 0.1125 0.0000
vt 0.8727 0.1268 0.0000
vt 0.8504 0.1268 0.0000
vt 0.7458 0.1125 0.0000
vt 0.7681 0.1125 0.0000
vt 0.7681 0.1268 0.0000
vt 0.7458 0.1268 0.0000
vt 0.7891 0.1125 0.0000
vt 0.7891 0.1268 0.0000
vt 0.8092 0.1125 -0.0000
vt 0.8092 0.1268 -0.0000
vt 0.8294 0.1125 0.0000
vt 0.8294 0.1268 0.0000
vt 0.6305 0.3707 0.0000
vt 0.6304 0.4234 0.0000
vt 0.6094 0.4234 0.0000
vt 0.6094 0.3707 0.0000
vt 0.6494 0.3707 0.0000
vt 0.6493 0.4235 0.0000
vt 0.6686 0.3708 0.0000
vt 0.6685 0.4235 0.0000
vt 0.5364 0.8978 0.0000
vt 0.5497 0.8887 0.0000
vt 0.5627 0.8874 0.0000
vt 0.5408 0.9037 0.0000
vt 0.5442 0.8779 0.0000
vt 0.5571 0.8778 0.0000
vt 0.5321 0.8904 0.0000
vt 0.5291 0.8836 0.0000
vt 0.3025 0.4706 0.0000
vt 0.3026 0.4633 0.0000
vt 0.3110 0.4634 0.0000
vt 0.3109 0.4707 0.0000
vt 0.9753 0.1163 0.0000
vt 0.9824 0.1120 0.0000
vt 0.9844 0.1245 0.0000
vt 0.9779 0.1229 0.0000
vt 0.9705 0.1110 0.0000
vt 0.9721 0.1045 0.0000
vt 0.9612 0.1250 0.0000
vt 0.9659 0.1303 0.0000
vt 0.9644 0.1368 0.0000
vt 0.9541 0.1293 0.0000
vt 0.9586 0.1183 0.0000
vt 0.9521 0.1168 0.0000
vt 0.9639 0.1136 0.0000
vt 0.9595 0.1065 0.0000
vt 0.9682 0.1206 0.0000
vt 0.9726 0.1277 0.0000
vt 0.9769 0.1348 0.0000
vt 0.9881 0.1084 0.0000
vt 0.9909 0.1261 0.0000
vt 0.9736 0.0979 0.0000
vt 0.9628 0.1434 0.0000
vt 0.9483 0.1329 0.0000
vt 0.9455 0.1152 0.0000
vt 0.9560 0.1007 0.0000
vt 0.9804 0.1405 0.0000
vt 0.1530 0.3492 0.0000
vt 0.1383 0.3423 0.0000
vt 0.1297 0.3325 0.0000
vt 0.1558 0.3423 0.0000
vt 0.1323 0.3526 0.0000
vt 0.1250 0.3424 0.0000
vt 0.1489 0.3567 0.0000
vt 0.1446 0.3627 0.0000
vt 0.6923 0.8702 0.0000
vt 0.6922 0.8628 0.0000
vt 0.7006 0.8627 0.0000
vt 0.7007 0.8700 0.0000
vt 0.6919 0.3709 0.0000
vt 0.7107 0.3707 0.0000
vt 0.7108 0.4235 0.0000
vt 0.6922 0.4237 0.0000
vt 0.7317 0.3707 0.0000
vt 0.7317 0.4235 0.0000
vt 0.6727 0.3710 0.0000
vt 0.6730 0.4238 0.0000
vt 0.0312 0.4077 0.0000
vt 0.0166 0.4007 0.0000
vt 0.0079 0.3909 0.0000
vt 0.0341 0.4008 0.0000
vt 0.0105 0.4110 0.0000
vt 0.0032 0.4008 0.0000
vt 0.0271 0.4152 0.0000
vt 0.0228 0.4212 0.0000
vt 0.3221 0.4707 0.0000
vt 0.3220 0.4634 0.0000
vt 0.3304 0.4633 0.0000
vt 0.3305 0.4706 0.0000
vt 0.1959 0.2624 0.0000
vt 0.2030 0.2581 0.0000
vt 0.2050 0.2706 0.0000
vt 0.1985 0.2691 0.0000
vt 0.1911 0.2571 0.0000
vt 0.1927 0.2506 0.0000
vt 0.1818 0.2711 0.0000
vt 0.1865 0.2764 0.0000
vt 0.1850 0.2829 0.0000
vt 0.1747 0.2755 0.0000
vt 0.1792 0.2645 0.0000
vt 0.1727 0.2629 0.0000
vt 0.1845 0.2597 0.0000
vt 0.1801 0.2526 0.0000
vt 0.1888 0.2668 0.0000
vt 0.1932 0.2738 0.0000
vt 0.1975 0.2809 0.0000
vt 0.2087 0.2546 0.0000
vt 0.2115 0.2722 0.0000
vt 0.1943 0.2441 0.0000
vt 0.1834 0.2895 0.0000
vt 0.1689 0.2790 0.0000
vt 0.1661 0.2613 0.0000
vt 0.1766 0.2469 0.0000
vt 0.2011 0.2867 0.0000
vt 0.4974 0.9027 0.0000
vt 0.5108 0.8936 0.0000
vt 0.5238 0.8923 0.0000
vt 0.5018 0.9086 0.0000
vt 0.5052 0.8827 0.0000
vt 0.5181 0.8827 0.0000
vt 0.4932 0.8953 0.0000
vt 0.4901 0.8884 0.0000
vt 0.6727 0.8700 0.0000
vt 0.6728 0.8627 0.0000
vt 0.6812 0.8628 0.0000
vt 0.6811 0.8702 0.0000
vt 0.9926 0.0056 0.0000
vt 0.9913 0.0915 0.0000
vt 0.9830 0.0900 0.0000
vt 0.9839 0.0058 0.0000
vt 0.9747 0.0878 0.0000
vt 0.9753 0.0064 0.0000
vt 0.9662 0.0864 0.0000
vt 0.9662 0.0066 0.0000
vt 0.9576 0.0877 0.0000
vt 0.9573 0.0064 0.0000
vt 0.9492 0.0897 0.0000
vt 0.9490 0.0056 0.0000
vt 0.9406 0.0909 0.0000
vt 0.9410 0.0054 0.0000
vt 0.9810 0.0965 0.0000
vt 0.9891 0.0996 0.0000
vt 0.9736 0.0918 0.0000
vt 0.9661 0.0890 0.0000
vt 0.9585 0.0917 0.0000
vt 0.9510 0.0962 0.0000
vt 0.9427 0.0989 0.0000
vt 0.0925 0.4121 0.0000
vt 0.0893 0.4036 0.0000
vt 0.0972 0.3999 0.0000
vt 0.1008 0.4103 0.0000
vt 0.0840 0.4148 0.0000
vt 0.0822 0.4086 0.0000
vt 0.0750 0.4163 0.0000
vt 0.0750 0.4114 0.0000
vt 0.0659 0.4148 0.0000
vt 0.0678 0.4087 0.0000
vt 0.0575 0.4121 0.0000
vt 0.0607 0.4037 0.0000
vt 0.0492 0.4103 0.0000
vt 0.0528 0.4000 0.0000
vt 0.1002 0.4617 0.0000
vt 0.0920 0.4601 0.0000
vt 0.0837 0.4578 0.0000
vt 0.0750 0.4565 0.0000
vt 0.0663 0.4578 0.0000
vt 0.0580 0.4601 0.0000
vt 0.0497 0.4617 0.0000
vt 0.0894 0.4689 0.0000
vt 0.0973 0.4723 0.0000
vt 0.0822 0.4642 0.0000
vt 0.0750 0.4615 0.0000
vt 0.0678 0.4641 0.0000
vt 0.0606 0.4689 0.0000
vt 0.0527 0.4723 0.0000
vt 0.8273 0.2123 0.0000
vt 0.8319 0.2233 0.0000
vt 0.8243 0.2277 0.0000
vt 0.8189 0.2132 0.0000
vt 0.8364 0.2114 0.0000
vt 0.8384 0.2174 0.0000
vt 0.8458 0.2137 0.0000
vt 0.8458 0.2107 0.0000
vt 0.8551 0.2114 0.0000
vt 0.8531 0.2173 0.0000
vt 0.8642 0.2123 0.0000
vt 0.8597 0.2233 0.0000
vt 0.8727 0.2132 0.0000
vt 0.8673 0.2277 0.0000
vt 0.8208 0.1905 0.0000
vt 0.8293 0.1912 0.0000
vt 0.8376 0.1921 0.0000
vt 0.8458 0.1925 0.0000
vt 0.8539 0.1921 0.0000
vt 0.8623 0.1912 0.0000
vt 0.8708 0.1905 0.0000
vt 0.6356 0.4344 0.0000
vt 0.6485 0.4340 0.0000
vt 0.6485 0.4427 0.0000
vt 0.6354 0.4430 0.0000
vt 0.6227 0.4346 0.0000
vt 0.6224 0.4432 0.0000
vt 0.6097 0.4344 0.0000
vt 0.6094 0.4431 0.0000
vt 0.6745 0.4346 0.0000
vt 0.6875 0.4345 0.0000
vt 0.6878 0.4431 0.0000
vt 0.6748 0.4432 0.0000
vt 0.6615 0.4344 0.0000
vt 0.6617 0.4430 0.0000
vt 0.4312 0.8724 0.0000
vt 0.4441 0.8729 0.0000
vt 0.4503 0.8843 0.0000
vt 0.4434 0.8954 0.0000
vt 0.4304 0.8949 0.0000
vt 0.4243 0.8835 0.0000
vt 0.5927 0.1564 0.0000
vt 0.5645 0.1919 0.0000
vt 0.5984 0.1618 0.0000
vt 0.6065 0.4480 0.0000
# 274 texture coords

o sink
g sink
usemtl 07___Default
s 1
f 1/1/1 2/2/1 3/3/1 
f 3/3/1 4/4/1 1/1/1 
s 2
f 5/5/2 6/6/3 7/7/2 
f 7/7/2 8/8/2 5/5/2 
s 1
f 8/9/4 9/10/4 10/11/4 
s 2
f 9/12/5 2/13/5 1/14/6 
f 1/14/6 11/15/6 9/12/5 
f 12/16/7 3/17/7 2/18/5 
f 2/18/5 9/19/5 12/16/7 
f 13/20/8 4/21/8 3/17/7 
f 3/17/7 12/16/7 13/20/8 
f 11/15/6 1/14/6 4/21/8 
f 4/21/8 13/20/8 11/15/6 
f 14/22/9 15/23/10 16/24/11 
f 16/24/11 17/25/12 14/22/9 
f 18/26/13 19/27/14 20/28/15 
f 20/28/15 21/29/16 18/26/13 
f 15/23/10 18/26/13 21/29/16 
f 21/29/16 16/24/11 15/23/10 
f 19/27/14 14/30/9 17/31/12 
f 17/31/12 20/28/15 19/27/14 
s 1
f 7/32/17 12/33/18 9/10/4 
f 9/10/4 8/9/4 7/32/17 
s 2
f 22/34/19 23/35/19 24/36/19 
s 4
f 25/37/20 7/7/20 6/6/20 
s 1
f 11/38/17 22/39/17 10/11/4 
f 10/11/4 9/10/4 11/38/17 
f 7/32/17 25/40/18 12/33/18 
s 4
f 10/41/21 22/34/22 24/36/23 
f 24/36/23 5/42/21 10/41/21 
s 2
f 26/43/24 25/37/24 6/6/3 
f 6/6/3 27/44/24 26/43/24 
s 4
f 23/35/25 28/45/25 27/44/25 
f 27/44/25 24/36/23 23/35/25 
s 8
f 5/5/26 8/8/26 10/46/26 
f 27/44/27 28/45/27 26/43/27 
s 1
f 29/47/1 30/48/1 31/49/1 
f 31/49/1 32/50/18 33/51/1 
f 29/47/1 31/49/1 33/51/1 
f 34/52/1 29/47/1 33/51/1 
s 8
f 33/53/28 32/54/29 35/55/29 
f 35/55/29 36/56/28 33/53/28 
f 32/57/29 31/58/30 37/59/30 
f 37/59/30 35/60/29 32/57/29 
f 31/58/30 30/61/31 38/62/31 
f 38/62/31 37/59/30 31/58/30 
f 30/61/31 29/63/32 39/64/32 
f 39/64/32 38/62/31 30/61/31 
f 29/63/32 34/65/33 40/66/33 
f 40/66/33 39/64/32 29/63/32 
f 34/65/33 33/53/28 36/56/28 
f 36/56/28 40/66/33 34/65/33 
f 41/67/34 42/68/34 43/69/35 
f 43/69/35 44/70/35 41/67/34 
f 41/67/34 45/71/36 46/72/37 
f 46/72/37 42/68/34 41/67/34 
f 45/71/36 44/73/35 43/74/35 
f 43/74/35 46/72/37 45/71/36 
s 1
f 47/75/38 48/76/39 49/77/40 
f 49/77/40 50/78/41 47/75/38 
f 51/79/42 52/80/43 53/81/44 
f 53/81/44 54/82/45 51/79/42 
f 47/83/38 50/84/41 54/85/45 
f 54/85/45 53/86/44 47/83/38 
f 47/75/38 53/81/44 52/80/43 
f 52/80/43 48/76/39 47/75/38 
f 55/87/46 56/88/47 57/89/48 
f 57/89/48 58/90/49 55/87/46 
f 59/91/50 60/92/51 56/88/47 
f 56/88/47 55/87/46 59/91/50 
f 61/93/52 62/94/53 63/95/54 
f 63/95/54 64/96/55 61/93/52 
f 65/97/56 61/93/52 64/96/55 
f 64/96/55 66/98/57 65/97/56 
f 67/99/58 68/100/59 60/92/51 
f 60/92/51 59/91/50 67/99/58 
f 65/97/56 66/98/57 68/100/59 
f 68/100/59 67/99/58 65/97/56 
f 69/101/1 67/99/58 59/91/50 
f 59/91/50 55/87/46 69/101/1 
f 70/102/60 69/101/1 55/87/46 
f 55/87/46 58/90/49 70/102/60 
f 61/93/52 65/97/56 67/99/58 
f 67/99/58 69/101/1 61/93/52 
f 62/94/53 61/93/52 69/101/1 
f 69/101/1 70/102/60 62/94/53 
f 71/103/61 70/102/60 58/90/49 
f 58/90/49 57/89/48 71/103/61 
f 63/95/54 62/94/53 70/102/60 
f 70/102/60 71/103/61 63/95/54 
f 57/89/48 56/88/47 72/104/62 
f 72/104/62 73/105/63 57/89/48 
f 56/88/47 60/92/51 74/106/64 
f 74/106/64 72/104/62 56/88/47 
f 64/96/55 63/95/54 75/107/33 
f 75/107/33 76/108/65 64/96/55 
f 66/98/57 64/96/55 76/108/65 
f 76/108/65 77/109/66 66/98/57 
f 60/92/51 68/100/59 78/110/67 
f 78/110/67 74/106/64 60/92/51 
f 68/100/59 66/98/57 77/109/66 
f 77/109/66 78/110/67 68/100/59 
f 71/103/61 57/89/48 73/105/63 
f 73/105/63 79/111/68 71/103/61 
f 63/95/54 71/103/61 79/111/68 
f 79/111/68 75/107/33 63/95/54 
f 80/112/69 81/113/70 82/114/71 
f 82/114/71 83/115/72 80/112/69 
f 84/116/73 85/117/74 86/118/75 
f 86/118/75 87/119/76 84/116/73 
f 80/120/69 83/121/72 87/122/76 
f 87/122/76 86/123/75 80/120/69 
f 80/112/69 86/118/75 85/117/74 
f 85/117/74 81/113/70 80/112/69 
s 8
f 88/124/77 89/125/78 90/126/78 
f 90/126/78 91/127/37 88/124/77 
f 92/128/34 93/129/34 90/126/78 
f 90/126/78 89/125/78 92/128/34 
f 92/130/34 88/124/77 91/127/37 
f 91/127/37 93/131/34 92/130/34 
s 1
f 94/132/69 95/133/70 96/134/71 
f 96/134/71 97/135/72 94/132/69 
f 98/136/79 99/137/74 100/138/75 
f 100/138/75 101/139/80 98/136/79 
f 94/140/69 97/141/72 101/142/80 
f 101/142/80 100/143/75 94/140/69 
f 94/132/69 100/138/75 99/137/74 
f 99/137/74 95/133/70 94/132/69 
f 102/144/81 103/145/82 104/146/83 
f 104/146/83 105/147/84 102/144/81 
f 106/148/85 107/149/86 103/145/82 
f 103/145/82 102/144/81 106/148/85 
f 108/150/87 109/151/88 110/152/89 
f 110/152/89 111/153/90 108/150/87 
f 112/154/91 108/150/87 111/153/90 
f 111/153/90 113/155/92 112/154/91 
f 114/156/60 115/157/61 107/149/86 
f 107/149/86 106/148/85 114/156/60 
f 112/154/91 113/155/92 115/157/61 
f 115/157/61 114/156/60 112/154/91 
f 116/158/17 114/156/60 106/148/85 
f 106/148/85 102/144/81 116/158/17 
f 117/159/58 116/158/17 102/144/81 
f 102/144/81 105/147/84 117/159/58 
f 108/150/87 112/154/91 114/156/60 
f 114/156/60 116/158/17 108/150/87 
f 109/151/88 108/150/87 116/158/17 
f 116/158/17 117/159/58 109/151/88 
f 118/160/59 117/159/58 105/147/84 
f 105/147/84 104/146/83 118/160/59 
f 110/152/89 109/151/88 117/159/58 
f 117/159/58 118/160/59 110/152/89 
f 104/146/83 103/145/82 119/161/65 
f 119/161/65 120/162/66 104/146/83 
f 103/145/82 107/149/86 121/163/93 
f 121/163/93 119/161/65 103/145/82 
f 111/153/90 110/152/89 122/164/64 
f 122/164/64 123/165/62 111/153/90 
f 113/155/92 111/153/90 123/165/62 
f 123/165/62 124/166/63 113/155/92 
f 107/149/86 115/157/61 125/167/68 
f 125/167/68 121/163/93 107/149/86 
f 115/157/61 113/155/92 124/166/63 
f 124/166/63 125/167/68 115/157/61 
f 118/160/59 104/146/83 120/162/66 
f 120/162/66 126/168/67 118/160/59 
f 110/152/89 118/160/59 126/168/67 
f 126/168/67 122/164/64 110/152/89 
f 127/169/38 128/170/39 129/171/40 
f 129/171/40 130/172/41 127/169/38 
f 131/173/42 132/174/43 133/175/44 
f 133/175/44 134/176/45 131/173/42 
f 127/177/38 130/178/41 134/179/45 
f 134/179/45 133/180/44 127/177/38 
f 127/169/38 133/175/44 132/174/43 
f 132/174/43 128/170/39 127/169/38 
f 135/181/94 136/182/95 137/183/96 
f 137/183/96 138/184/97 135/181/94 
f 138/184/97 137/183/96 139/185/98 
f 139/185/98 140/186/99 138/184/97 
f 140/186/99 139/185/98 141/187/100 
f 141/187/100 142/188/101 140/186/99 
f 142/188/101 141/187/100 143/189/102 
f 143/189/102 144/190/103 142/188/101 
f 144/190/103 143/189/102 145/191/104 
f 145/191/104 146/192/105 144/190/103 
f 146/192/105 145/191/104 136/193/95 
f 136/193/95 135/194/94 146/192/105 
f 147/195/106 137/183/96 136/182/95 
f 136/182/95 148/196/107 147/195/106 
f 149/197/108 139/185/98 137/183/96 
f 137/183/96 147/195/106 149/197/108 
f 150/198/109 141/187/100 139/185/98 
f 139/185/98 149/197/108 150/198/109 
f 151/199/110 143/189/102 141/187/100 
f 141/187/100 150/198/109 151/199/110 
f 152/200/111 145/191/104 143/189/102 
f 143/189/102 151/199/110 152/200/111 
f 148/201/107 136/193/95 145/191/104 
f 145/191/104 152/200/111 148/201/107 
f 153/202/112 147/203/106 148/204/107 
f 148/204/107 154/205/113 153/202/112 
f 155/206/114 149/207/108 147/203/106 
f 147/203/106 153/202/112 155/206/114 
f 156/208/115 150/209/109 149/207/108 
f 149/207/108 155/206/114 156/208/115 
f 157/210/116 151/211/110 150/209/109 
f 150/209/109 156/208/115 157/210/116 
f 158/212/117 152/213/111 151/211/110 
f 151/211/110 157/210/116 158/212/117 
f 154/214/113 148/215/107 152/213/111 
f 152/213/111 158/212/117 154/214/113 
f 154/205/113 159/216/118 160/217/119 
f 160/217/119 153/202/112 154/205/113 
f 153/202/112 160/217/119 161/218/120 
f 161/218/120 155/206/114 153/202/112 
f 155/206/114 161/218/120 162/219/121 
f 162/219/121 156/208/115 155/206/114 
f 156/208/115 162/219/121 163/220/122 
f 163/220/122 157/210/116 156/208/115 
f 157/210/116 163/220/122 164/221/123 
f 164/221/123 158/212/117 157/210/116 
f 158/212/117 164/221/123 159/222/118 
f 159/222/118 154/214/113 158/212/117 
f 165/223/124 160/217/119 159/216/118 
f 159/216/118 166/224/125 165/223/124 
f 167/225/126 161/218/120 160/217/119 
f 160/217/119 165/223/124 167/225/126 
f 168/226/127 162/219/121 161/218/120 
f 161/218/120 167/225/126 168/226/127 
f 169/227/128 163/220/122 162/219/121 
f 162/219/121 168/226/127 169/227/128 
f 170/228/129 164/221/123 163/220/122 
f 163/220/122 169/227/128 170/228/129 
f 166/229/125 159/222/118 164/221/123 
f 164/221/123 170/228/129 166/229/125 
f 171/230/130 165/231/124 166/232/125 
f 166/232/125 172/233/131 171/230/130 
f 173/234/132 167/235/126 165/231/124 
f 165/231/124 171/230/130 173/234/132 
f 168/236/127 167/235/126 173/234/132 
f 173/234/132 174/237/133 168/236/127 
f 175/238/134 169/239/128 168/236/127 
f 168/236/127 174/237/133 175/238/134 
f 176/240/135 170/241/129 169/239/128 
f 169/239/128 175/238/134 176/240/135 
f 172/242/131 166/243/125 170/241/129 
f 170/241/129 176/240/135 172/242/131 
f 172/233/131 177/244/136 178/245/137 
f 178/245/137 171/230/130 172/233/131 
f 171/230/130 178/245/137 179/246/138 
f 179/246/138 173/234/132 171/230/130 
f 173/234/132 179/246/138 180/247/139 
f 180/247/139 174/237/133 173/234/132 
f 174/237/133 180/247/139 181/248/140 
f 181/248/140 175/238/134 174/237/133 
f 175/238/134 181/248/140 182/249/141 
f 182/249/141 176/240/135 175/238/134 
f 176/240/135 182/249/141 177/250/136 
f 177/250/136 172/242/131 176/240/135 
s off
f 183/251/142 184/252/142 185/253/142 
f 185/253/142 186/254/142 183/251/142 
f 187/255/143 183/251/143 186/254/143 
f 186/254/144 188/256/144 187/255/144 
f 189/257/145 187/255/145 188/256/145 
f 188/256/145 190/258/145 189/257/145 
f 191/259/146 189/260/146 190/261/146 
f 190/261/146 192/262/146 191/259/146 
f 193/263/147 191/259/147 192/262/147 
f 192/262/148 194/264/148 193/263/148 
f 184/252/149 193/263/149 194/264/149 
f 194/264/150 185/253/150 184/252/150 
f 187/265/151 189/266/151 191/267/151 
f 191/267/151 193/268/151 184/269/151 
f 187/265/151 191/267/151 184/269/151 
f 183/270/152 187/265/152 184/269/152 
s 1
f 12/33/18 25/40/18 26/271/1 
f 26/271/1 13/272/1 12/33/18 
f 13/272/1 26/271/1 28/273/4 
f 11/38/17 13/272/1 28/273/4 
f 28/273/4 23/274/17 11/38/17 
f 11/38/17 23/274/17 22/39/17 
# 282 faces

